<svg width="16" height="16" viewBox="0 0 16 16" fill="none" xmlns="http://www.w3.org/2000/svg">
    <path fill-rule="evenodd" clip-rule="evenodd" d="M3.00001 1.66666C2.63182 1.66666 2.33334 1.96513 2.33334 2.33332V13.6667C2.33334 14.0348 2.63182 14.3333 3.00001 14.3333H8.17975C8.0626 13.9088 8.00001 13.4617 8.00001 13C8.00001 12.4156 8.10027 11.8546 8.28452 11.3333H6.33334C5.96515 11.3333 5.66668 11.0348 5.66668 10.6667C5.66668 10.2985 5.96515 9.99999 6.33334 9.99999H8.99965C9.91185 8.78554 11.3642 7.99999 13 7.99999C13.226 7.99999 13.4486 8.01499 13.6667 8.04405V2.33332C13.6667 1.96513 13.3682 1.66666 13 1.66666H3.00001ZM8.00001 4.66666C6.71135 4.66666 5.66668 5.71132 5.66668 6.99999C5.66668 8.28865 6.71135 9.33332 8.00001 9.33332C9.28868 9.33332 10.3333 8.28865 10.3333 6.99999C10.3333 5.71132 9.28868 4.66666 8.00001 4.66666ZM7.00001 6.99999C7.00001 6.4477 7.44773 5.99999 8.00001 5.99999C8.5523 5.99999 9.00001 6.4477 9.00001 6.99999C9.00001 7.55227 8.5523 7.99999 8.00001 7.99999C7.44773 7.99999 7.00001 7.55227 7.00001 6.99999ZM12 12V9.99999H14V12L16 12V14H14V16H12V14H10V12H12Z" fill="currentColor"></path>
</svg>
